<svg enable-background="new 0 0 256 256" viewBox="0 0 256 256" xmlns="http://www.w3.org/2000/svg"><path d="m48.063 26.073s3.408 12.659 13.222 13.246c0 0-13.1 4.525-13.321 14.202 0 0-2.578-13.572-12.925-14.059 0 .001 12.05-1.825 13.024-13.389z" fill="#d6df58"/><path d="m47.962 55.021c-.712 0-1.335-.506-1.472-1.217-.024-.125-2.495-12.418-11.523-12.844-.77-.036-1.387-.65-1.427-1.421-.039-.77.511-1.444 1.274-1.561.441-.068 10.894-1.816 11.754-12.032.061-.726.634-1.301 1.359-1.367.717-.063 1.393.398 1.583 1.102.032.116 3.259 11.626 11.864 12.142.714.043 1.297.584 1.395 1.292s-.319 1.388-.994 1.622c-.121.042-12.118 4.311-12.313 12.819-.018.767-.61 1.396-1.375 1.46-.04.004-.083.005-.125.005zm-7.74-15.729c3.878 1.969 6.23 5.746 7.587 8.877 2.027-4.022 5.942-6.787 8.949-8.428-4.134-1.842-6.783-5.651-8.334-8.723-1.793 4.361-5.272 6.869-8.202 8.274z" fill="#3a312a"/><path d="m26.365 43.054s2.411 8.954 9.352 9.369c0 0-9.266 3.201-9.422 10.045 0 0-1.824-9.6-9.142-9.944-.001.001 8.523-1.291 9.212-9.47z" fill="#d6df58"/><path d="m26.293 63.969c-.713 0-1.337-.507-1.472-1.22-.016-.082-1.704-8.442-7.74-8.727-.77-.036-1.387-.65-1.427-1.421-.04-.77.511-1.444 1.273-1.561.296-.047 7.364-1.242 7.943-8.113.061-.726.635-1.303 1.36-1.368.732-.071 1.392.4 1.582 1.101.022.079 2.228 7.92 7.994 8.266.714.043 1.299.584 1.396 1.293.098.709-.32 1.389-.996 1.622-.081.028-8.282 2.952-8.412 8.661-.017.768-.611 1.397-1.376 1.461-.042.004-.084.006-.125.006zm-4.519-11.528c2.107 1.332 3.523 3.395 4.447 5.279 1.376-2.232 3.515-3.871 5.365-4.972-2.287-1.27-3.884-3.351-4.941-5.225-1.173 2.289-3.015 3.877-4.871 4.918z" fill="#3a312a"/><path d="m26.365 16.396s2.411 8.954 9.352 9.37c0 0-9.266 3.201-9.422 10.045 0 0-1.824-9.6-9.142-9.944-.001 0 8.523-1.291 9.212-9.471z" fill="#d6df58"/><path d="m26.293 37.312c-.714 0-1.337-.507-1.473-1.22-.016-.082-1.704-8.442-7.74-8.727-.77-.036-1.387-.65-1.427-1.421-.04-.769.511-1.444 1.273-1.56.296-.047 7.364-1.242 7.943-8.113.061-.726.635-1.303 1.36-1.368.732-.064 1.392.399 1.582 1.102.022.079 2.228 7.92 7.993 8.265.715.042 1.299.584 1.396 1.293.098.709-.319 1.388-.996 1.622-.081.028-8.282 2.953-8.412 8.662-.017.768-.611 1.397-1.376 1.461-.04.002-.082.004-.123.004zm-4.519-11.528c2.107 1.332 3.523 3.394 4.447 5.279 1.376-2.232 3.515-3.872 5.364-4.973-2.287-1.269-3.884-3.35-4.941-5.224-1.172 2.288-3.014 3.877-4.87 4.918z" fill="#3a312a"/><path d="m81.237 187.482v34.317c0 9.833 7.971 17.805 17.805 17.805h121.895c9.833 0 17.805-7.971 17.805-17.805v-172.141c0-9.833-7.971-17.805-17.805-17.805h-121.895c-9.833 0-17.805 7.971-17.805 17.805v124.567z" fill="#fae6ca"/><path d="m220.937 241.104h-121.896c-10.644 0-19.305-8.66-19.305-19.305v-34.316c0-.828.671-1.5 1.5-1.5s1.5.672 1.5 1.5v34.316c0 8.99 7.314 16.305 16.305 16.305h121.896c8.99 0 16.305-7.314 16.305-16.305v-172.141c0-8.99-7.314-16.305-16.305-16.305h-121.896c-8.99 0-16.305 7.314-16.305 16.305v124.566c0 .828-.671 1.5-1.5 1.5s-1.5-.672-1.5-1.5v-124.566c0-10.645 8.66-19.305 19.305-19.305h121.896c10.644 0 19.305 8.66 19.305 19.305v172.141c0 10.644-8.661 19.305-19.305 19.305z" fill="#3a312a"/><path d="m181.039 72.354h57.866v-22.696c0-9.833-7.971-17.805-17.805-17.805h-121.896c-9.833 0-17.805 7.971-17.805 17.805v22.695h86.865 12.775z" fill="#8ac5dc"/><path d="m238.904 73.854h-57.866c-.829 0-1.5-.672-1.5-1.5s.671-1.5 1.5-1.5h56.366v-21.196c0-8.99-7.314-16.305-16.305-16.305h-121.894c-8.99 0-16.305 7.314-16.305 16.305v21.195h85.365c.829 0 1.5.672 1.5 1.5s-.671 1.5-1.5 1.5h-86.865c-.829 0-1.5-.672-1.5-1.5v-22.695c0-10.645 8.66-19.305 19.305-19.305h121.895c10.645 0 19.305 8.66 19.305 19.305v22.695c-.001.829-.672 1.501-1.501 1.501z" fill="#3a312a"/><path d="m91.943 43.37v-21.282c0-3.038 2.462-5.5 5.5-5.5h.455c3.038 0 5.5 2.462 5.5 5.5v21.282c0 3.038-2.462 5.5-5.5 5.5h-.455c-3.037 0-5.5-2.463-5.5-5.5z" fill="#87796f"/><path d="m97.898 50.369h-.455c-3.86 0-7-3.141-7-7v-21.281c0-3.859 3.14-7 7-7h.455c3.86 0 7 3.141 7 7v21.281c0 3.86-3.14 7-7 7zm-.455-32.281c-2.206 0-4 1.794-4 4v21.281c0 2.206 1.794 4 4 4h.455c2.206 0 4-1.794 4-4v-21.281c0-2.206-1.794-4-4-4z" fill="#3a312a"/><path d="m116.936 43.37v-21.282c0-3.038 2.463-5.5 5.5-5.5h.455c3.038 0 5.5 2.462 5.5 5.5v21.282c0 3.038-2.462 5.5-5.5 5.5h-.455c-3.038 0-5.5-2.463-5.5-5.5z" fill="#87796f"/><path d="m122.891 50.369h-.455c-3.86 0-7-3.141-7-7v-21.281c0-3.859 3.14-7 7-7h.455c3.86 0 7 3.141 7 7v21.281c0 3.86-3.141 7-7 7zm-.455-32.281c-2.206 0-4 1.794-4 4v21.281c0 2.206 1.794 4 4 4h.455c2.206 0 4-1.794 4-4v-21.281c0-2.206-1.794-4-4-4z" fill="#3a312a"/><path d="m141.928 43.37v-21.282c0-3.038 2.462-5.5 5.5-5.5h.455c3.038 0 5.5 2.462 5.5 5.5v21.282c0 3.038-2.462 5.5-5.5 5.5h-.455c-3.037 0-5.5-2.463-5.5-5.5z" fill="#87796f"/><path d="m147.883 50.369h-.455c-3.86 0-7-3.141-7-7v-21.281c0-3.859 3.14-7 7-7h.455c3.86 0 7 3.141 7 7v21.281c0 3.86-3.14 7-7 7zm-.455-32.281c-2.206 0-4 1.794-4 4v21.281c0 2.206 1.794 4 4 4h.455c2.206 0 4-1.794 4-4v-21.281c0-2.206-1.794-4-4-4z" fill="#3a312a"/><path d="m166.921 43.37v-21.282c0-3.038 2.462-5.5 5.5-5.5h.455c3.038 0 5.5 2.462 5.5 5.5v21.282c0 3.038-2.462 5.5-5.5 5.5h-.455c-3.038 0-5.5-2.463-5.5-5.5z" fill="#87796f"/><path d="m172.875 50.369h-.455c-3.86 0-7-3.141-7-7v-21.281c0-3.859 3.14-7 7-7h.455c3.86 0 7 3.141 7 7v21.281c0 3.86-3.14 7-7 7zm-.454-32.281c-2.206 0-4 1.794-4 4v21.281c0 2.206 1.794 4 4 4h.455c2.206 0 4-1.794 4-4v-21.281c0-2.206-1.794-4-4-4z" fill="#3a312a"/><path d="m191.913 43.37v-21.282c0-3.038 2.462-5.5 5.5-5.5h.455c3.037 0 5.5 2.462 5.5 5.5v21.282c0 3.038-2.463 5.5-5.5 5.5h-.455c-3.037 0-5.5-2.463-5.5-5.5z" fill="#87796f"/><path d="m197.868 50.369h-.455c-3.86 0-7-3.141-7-7v-21.281c0-3.859 3.14-7 7-7h.455c3.86 0 7 3.141 7 7v21.281c0 3.86-3.14 7-7 7zm-.455-32.281c-2.206 0-4 1.794-4 4v21.281c0 2.206 1.794 4 4 4h.455c2.205 0 4-1.794 4-4v-21.281c0-2.206-1.795-4-4-4z" fill="#3a312a"/><path d="m216.906 43.37v-21.282c0-3.038 2.462-5.5 5.5-5.5h.455c3.038 0 5.5 2.462 5.5 5.5v21.282c0 3.038-2.462 5.5-5.5 5.5h-.455c-3.038 0-5.5-2.463-5.5-5.5z" fill="#87796f"/><path d="m222.861 50.369h-.455c-3.86 0-7-3.141-7-7v-21.281c0-3.859 3.14-7 7-7h.455c3.859 0 7 3.141 7 7v21.281c-.001 3.86-3.141 7-7 7zm-.455-32.281c-2.206 0-4 1.794-4 4v21.281c0 2.206 1.794 4 4 4h.455c2.206 0 4-1.794 4-4v-21.281c0-2.206-1.794-4-4-4z" fill="#3a312a"/><path d="m112.795 71.523 3.235-6.4c2.336-4.622.483-10.263-4.139-12.599-4.622-2.336-10.263-.483-12.599 4.139l-3.235 6.4z" fill="#ef6d7a"/><path d="m112.794 73.022c-.228 0-.459-.052-.676-.161l-16.738-8.459c-.739-.374-1.036-1.276-.662-2.016l3.234-6.4c2.705-5.352 9.259-7.507 14.615-4.801 2.593 1.311 4.521 3.553 5.427 6.312.907 2.761.684 5.709-.626 8.302l-3.234 6.399c-.264.524-.792.824-1.34.824zm-14.721-10.621 14.061 7.105 2.558-5.061c.949-1.878 1.11-4.013.454-6.012-.657-1.999-2.053-3.622-3.931-4.571-3.876-1.961-8.625-.4-10.584 3.477z" fill="#3a312a"/><path d="m112.795 71.523-76.382 149.9-16.738-8.46 76.382-149.9z" fill="#8ac5dc"/><path d="m36.412 222.923c-.228 0-.458-.052-.676-.161l-16.738-8.46c-.355-.18-.625-.494-.749-.873s-.092-.792.089-1.146l76.383-149.9c.375-.738 1.273-1.031 2.013-.658l16.738 8.459c.355.18.626.494.749.873.124.379.092.792-.089 1.146l-76.383 149.9c-.265.521-.792.82-1.337.82zm-14.718-10.62 14.061 7.107 75.021-147.228-14.061-7.106z" fill="#3a312a"/><path d="m57.741 138.259-38.066 74.704 16.738 8.46 38.066-74.704z" fill="#ef6d7a"/><path d="m36.412 222.923c-.228 0-.458-.052-.676-.161l-16.738-8.46c-.355-.18-.625-.494-.749-.873s-.092-.792.089-1.146l38.066-74.704c.375-.738 1.275-1.029 2.013-.658l16.738 8.46c.355.18.626.494.749.873.124.379.092.792-.089 1.146l-38.066 74.704c-.265.52-.792.819-1.337.819zm-14.718-10.62 14.061 7.107 36.705-72.031-14.061-7.107z" fill="#3a312a"/><path d="m36.413 221.423-16.738-8.46-2.579 25.891z" fill="#d6df58"/><path d="m17.095 240.354c-.23 0-.462-.053-.676-.161-.553-.279-.877-.871-.816-1.487l2.579-25.891c.049-.492.337-.929.771-1.167.435-.237.958-.245 1.399-.024l16.738 8.46c.441.224.744.649.81 1.14.065.49-.115.981-.482 1.312l-19.317 17.431c-.282.255-.642.387-1.006.387zm3.856-25.066-1.978 19.851 14.811-13.364z" fill="#3a312a"/><path d="m222.242 73.854v147.95c0 8.99-7.31 16.3-16.3 16.3h15c8.99 0 16.3-7.31 16.3-16.3v-147.95z" fill="#decaad"/><path d="m237.402 49.654v21.2h-15v-20.48h.46c3.86 0 7-3.14 7-7v-7.44c4.53 2.9 7.54 7.96 7.54 13.72z" fill="#6ca8bf"/><path d="m209.751 127.05c0 1.367-.467 2.739-1.425 3.855l-5.426 6.313c-.625.73-1.39 1.267-2.225 1.606-2.272-2.879-4.842-5.513-7.663-7.85.222-.52.531-1.016.917-1.466l5.426-6.313c2.126-2.476 5.858-2.757 8.34-.631 1.361 1.168 2.056 2.821 2.056 4.486z" fill="#f16c7a"/><path d="m200.675 140.324c-.45 0-.887-.202-1.178-.571-2.206-2.796-4.71-5.36-7.441-7.623-.512-.424-.684-1.134-.423-1.745.285-.667.675-1.29 1.158-1.854l5.426-6.313c2.658-3.096 7.348-3.452 10.454-.793 1.64 1.408 2.58 3.458 2.58 5.625 0 1.774-.635 3.49-1.788 4.832l-5.426 6.313c-.767.896-1.709 1.577-2.799 2.019-.182.074-.374.11-.563.11zm-5.736-9.681c2.2 1.912 4.249 4.012 6.114 6.263.257-.191.493-.412.707-.662l5.428-6.316c.685-.798 1.063-1.819 1.063-2.877 0-1.291-.559-2.511-1.533-3.348-1.849-1.582-4.642-1.373-6.225.47l-5.426 6.314c-.044.051-.087.103-.128.156z" fill="#3a312a"/><circle cx="160.189" cy="170.659" fill="#87796f" r="51.498"/><path d="m160.189 223.656c-29.223 0-52.998-23.774-52.998-52.998s23.774-52.998 52.998-52.998 52.998 23.774 52.998 52.998-23.774 52.998-52.998 52.998zm0-102.996c-27.569 0-49.998 22.429-49.998 49.998s22.429 49.998 49.998 49.998 49.998-22.429 49.998-49.998-22.429-49.998-49.998-49.998z" fill="#3a312a"/><path d="m125.763 146.157c-4.929 6.913-7.838 15.365-7.838 24.502 0 23.342 18.922 42.264 42.264 42.264s42.264-18.922 42.264-42.264-18.922-42.264-42.264-42.264c-11.126 0-21.242 4.306-28.789 11.334z" fill="#d7e057"/><path d="m160.189 214.422c-24.131 0-43.763-19.632-43.763-43.764 0-9.152 2.807-17.926 8.117-25.372.029-.041.06-.08.093-.118l5.636-6.429c.033-.038.069-.074.106-.108 8.128-7.568 18.715-11.736 29.811-11.736 24.131 0 43.764 19.632 43.764 43.764s-19.633 43.763-43.764 43.763zm-33.247-67.333c-4.918 6.922-7.516 15.07-7.516 23.569 0 22.477 18.286 40.764 40.763 40.764s40.764-18.286 40.764-40.764-18.287-40.764-40.764-40.764c-10.31 0-20.148 3.863-27.712 10.881z" fill="#3a312a"/><path d="m167.18 107.56v12.271c-2.283-.315-4.62-.473-6.991-.473s-4.708.158-6.991.473v-12.271z" fill="#8ac6dd"/><path d="m167.18 121.331c-.068 0-.137-.005-.205-.014-4.415-.611-9.156-.611-13.572 0-.428.056-.863-.071-1.19-.355-.327-.285-.515-.697-.515-1.131v-12.271c0-.828.671-1.5 1.5-1.5h13.982c.829 0 1.5.672 1.5 1.5v12.271c0 .434-.188.846-.515 1.131-.274.239-.625.369-.985.369zm-6.991-3.474c1.847 0 3.686.095 5.491.282v-9.079h-10.982v9.079c1.805-.187 3.645-.282 5.491-.282z" fill="#3a312a"/><path d="m150.954 91.854h-5.216c-2.757 0-4.992 2.235-4.992 4.992v5.532c0 2.757 2.235 4.992 4.992 4.992h28.904c2.757 0 4.992-2.235 4.992-4.992v-5.532c0-2.757-2.235-4.992-4.992-4.992h-15.437z" fill="#8ac6dd"/><g fill="#3a312a"><path d="m174.641 108.869h-28.904c-3.58 0-6.492-2.912-6.492-6.492v-5.531c0-3.58 2.912-6.492 6.492-6.492h28.904c3.58 0 6.492 2.912 6.492 6.492v5.531c0 3.58-2.912 6.492-6.492 6.492zm-28.904-15.515c-1.925 0-3.492 1.566-3.492 3.492v5.531c0 1.926 1.566 3.492 3.492 3.492h28.904c1.925 0 3.492-1.566 3.492-3.492v-5.531c0-1.926-1.566-3.492-3.492-3.492z"/><path d="m160.189 132.02c-.461 0-.835.374-.835.835v1.697c0 .461.374.835.835.835s.835-.374.835-.835v-1.697c0-.461-.374-.835-.835-.835z"/><path d="m160.189 205.892c-.461 0-.835.374-.835.835v1.697c0 .461.374.835.835.835s.835-.374.835-.835v-1.697c0-.461-.374-.835-.835-.835z"/><path d="m198.809 170.639c0-.461-.374-.835-.835-.835h-1.697c-.461 0-.835.374-.835.835s.374.835.835.835h1.697c.461.001.835-.373.835-.835z"/><path d="m124.937 170.639c0-.461-.374-.835-.835-.835h-1.697c-.461 0-.835.374-.835.835s.374.835.835.835h1.697c.461.001.835-.373.835-.835z"/><path d="m187.497 143.331c-.326-.326-.855-.326-1.181 0l-1.2 1.2c-.326.326-.326.855 0 1.181s.855.326 1.181 0l1.2-1.2c.326-.326.326-.854 0-1.181z"/><path d="m135.262 195.567c-.326-.326-.855-.326-1.181 0l-1.2 1.2c-.326.326-.326.855 0 1.181s.855.326 1.181 0l1.2-1.2c.326-.326.326-.855 0-1.181z"/><path d="m187.497 197.948c.326-.326.326-.855 0-1.181l-1.2-1.2c-.326-.326-.855-.326-1.181 0s-.326.855 0 1.181l1.2 1.2c.326.326.855.326 1.181 0z"/><path d="m135.262 145.712c.326-.326.326-.855 0-1.181l-1.2-1.2c-.326-.326-.855-.326-1.181 0s-.326.855 0 1.181l1.2 1.2c.326.327.855.327 1.181 0z"/><path d="m187.496 197.947c-.327.327-.855.327-1.182 0l-1.197-1.197c-.327-.327-.327-.855 0-1.181.327-.327.855-.327 1.181 0l1.197 1.197c.328.326.328.854.001 1.181z"/></g><path d="m157.129 157.986v7.944c.882-.572 1.933-.905 3.06-.905s2.178.333 3.06.905v-23.987c0-1.694-1.372-3.06-3.06-3.06s-3.06 1.367-3.06 3.06v7.525z" fill="#f16c7a"/><path d="m163.249 167.43c-.285 0-.57-.081-.817-.242-1.335-.868-3.151-.868-4.486 0-.461.301-1.05.322-1.533.061-.483-.263-.785-.768-.785-1.318v-23.987c0-2.514 2.045-4.56 4.56-4.56s4.561 2.046 4.561 4.56v23.987c0 .55-.301 1.056-.785 1.318-.223.12-.469.181-.715.181zm-3.06-3.906c.529 0 1.052.059 1.561.172v-21.754c0-.86-.7-1.56-1.561-1.56-.86 0-1.56.699-1.56 1.56v21.754c.509-.114 1.031-.172 1.56-.172z" fill="#3a312a"/><path d="m165.826 170.659c0 3.113-2.523 5.637-5.636 5.637s-5.637-2.523-5.637-5.637c0-3.113 2.524-5.636 5.637-5.636s5.636 2.523 5.636 5.636z" fill="#fce8cb"/><path d="m160.189 177.795c-3.935 0-7.136-3.201-7.136-7.137 0-3.935 3.201-7.136 7.136-7.136s7.137 3.201 7.137 7.136c0 3.936-3.202 7.137-7.137 7.137zm0-11.272c-2.281 0-4.136 1.855-4.136 4.136s1.855 4.137 4.136 4.137 4.137-1.855 4.137-4.137c0-2.281-1.856-4.136-4.137-4.136z" fill="#3a312a"/></svg>